<?xml version="1.0" encoding="UTF-8"?>
<svg xmlns="http://www.w3.org/2000/svg" xmlns:xlink="http://www.w3.org/1999/xlink" width="18px" height="18px" viewBox="0 0 18 18" version="1.1">
<g id="surface1">
<path style=" stroke:none;fill-rule:nonzero;fill:rgb(96.862745%,22.745098%,9.411765%);fill-opacity:1;" d="M 9 9 C 9.414062 9 9.765625 8.851562 10.058594 8.558594 C 10.351562 8.265625 10.5 7.914062 10.5 7.5 C 10.5 7.085938 10.351562 6.734375 10.058594 6.441406 C 9.765625 6.148438 9.414062 6 9 6 C 8.585938 6 8.234375 6.148438 7.941406 6.441406 C 7.648438 6.734375 7.5 7.085938 7.5 7.5 C 7.5 7.914062 7.648438 8.265625 7.941406 8.558594 C 8.234375 8.851562 8.585938 9 9 9 Z M 9 16.5 C 6.988281 14.789062 5.484375 13.195312 4.492188 11.726562 C 3.496094 10.257812 3 8.898438 3 7.648438 C 3 5.773438 3.601562 4.28125 4.808594 3.167969 C 6.015625 2.054688 7.414062 1.5 9 1.5 C 10.585938 1.5 11.984375 2.054688 13.191406 3.167969 C 14.398438 4.28125 15 5.773438 15 7.648438 C 15 8.898438 14.503906 10.257812 13.507812 11.726562 C 12.515625 13.195312 11.011719 14.789062 9 16.5 Z M 9 16.5 "/>
</g>
</svg>
