<?xml version="1.0" encoding="UTF-8"?>
<svg xmlns="http://www.w3.org/2000/svg" xmlns:xlink="http://www.w3.org/1999/xlink" width="18px" height="18px" viewBox="0 0 18 18" version="1.1">
<g id="surface1">
<path style=" stroke:none;fill-rule:nonzero;fill:rgb(96.862745%,22.745098%,9.411765%);fill-opacity:1;" d="M 3 15 C 2.585938 15 2.234375 14.851562 1.941406 14.558594 C 1.648438 14.265625 1.5 13.914062 1.5 13.5 L 1.5 4.5 C 1.5 4.085938 1.648438 3.734375 1.941406 3.441406 C 2.234375 3.148438 2.585938 3 3 3 L 15 3 C 15.414062 3 15.765625 3.148438 16.058594 3.441406 C 16.351562 3.734375 16.5 4.085938 16.5 4.5 L 16.5 13.5 C 16.5 13.914062 16.351562 14.265625 16.058594 14.558594 C 15.765625 14.851562 15.414062 15 15 15 Z M 9 9.75 L 15 6 L 15 4.5 L 9 8.25 L 3 4.5 L 3 6 Z M 9 9.75 "/>
</g>
</svg>
