<?xml version="1.0" encoding="UTF-8"?>
<svg xmlns="http://www.w3.org/2000/svg" xmlns:xlink="http://www.w3.org/1999/xlink" width="18px" height="18px" viewBox="0 0 18 18" version="1.1">
<g id="surface1">
<path style=" stroke:none;fill-rule:nonzero;fill:rgb(96.862745%,22.745098%,9.411765%);fill-opacity:1;" d="M 14.25 8.960938 C 14.25 7.5 13.742188 6.257812 12.722656 5.242188 C 11.703125 4.222656 10.460938 3.710938 9 3.710938 L 9 2.210938 C 9.9375 2.210938 10.816406 2.390625 11.632812 2.746094 C 12.453125 3.101562 13.164062 3.585938 13.773438 4.191406 C 14.378906 4.796875 14.859375 5.507812 15.214844 6.328125 C 15.570312 7.148438 15.75 8.023438 15.75 8.960938 Z M 11.25 8.960938 C 11.25 8.335938 11.03125 7.804688 10.59375 7.367188 C 10.15625 6.929688 9.625 6.710938 9 6.710938 L 9 5.210938 C 10.039062 5.210938 10.921875 5.578125 11.652344 6.308594 C 12.382812 7.039062 12.75 7.925781 12.75 8.960938 Z M 14.960938 15.75 C 13.351562 15.75 11.777344 15.390625 10.246094 14.671875 C 8.714844 13.953125 7.359375 13.003906 6.179688 11.820312 C 4.996094 10.640625 4.046875 9.285156 3.328125 7.753906 C 2.609375 6.222656 2.25 4.648438 2.25 3.039062 C 2.25 2.8125 2.324219 2.625 2.476562 2.476562 C 2.625 2.324219 2.8125 2.25 3.039062 2.25 L 6.074219 2.25 C 6.25 2.25 6.40625 2.304688 6.542969 2.417969 C 6.679688 2.53125 6.761719 2.675781 6.789062 2.851562 L 7.273438 5.476562 C 7.300781 5.648438 7.296875 5.808594 7.265625 5.953125 C 7.234375 6.097656 7.164062 6.226562 7.050781 6.335938 L 5.25 8.175781 C 5.773438 9.074219 6.429688 9.917969 7.21875 10.707031 C 8.007812 11.492188 8.875 12.175781 9.824219 12.75 L 11.585938 10.988281 C 11.699219 10.875 11.847656 10.789062 12.027344 10.734375 C 12.210938 10.679688 12.386719 10.664062 12.5625 10.6875 L 15.148438 11.210938 C 15.324219 11.25 15.46875 11.335938 15.582031 11.464844 C 15.695312 11.597656 15.75 11.75 15.75 11.925781 L 15.75 14.960938 C 15.75 15.1875 15.675781 15.375 15.523438 15.523438 C 15.375 15.675781 15.1875 15.75 14.960938 15.75 Z M 14.960938 15.75 "/>
</g>
</svg>
