<?xml version="1.0" encoding="UTF-8"?>
<svg xmlns="http://www.w3.org/2000/svg" xmlns:xlink="http://www.w3.org/1999/xlink" width="18px" height="18px" viewBox="0 0 18 18" version="1.1">
<g id="surface1">
<path style=" stroke:none;fill-rule:nonzero;fill:rgb(96.862745%,22.745098%,9.411765%);fill-opacity:1;" d="M 11.476562 12.523438 L 12.523438 11.476562 L 9.75 8.699219 L 9.75 5.25 L 8.25 5.25 L 8.25 9.300781 Z M 9 16.5 C 7.960938 16.5 6.988281 16.304688 6.074219 15.910156 C 5.164062 15.515625 4.367188 14.980469 3.695312 14.304688 C 3.019531 13.632812 2.484375 12.835938 2.089844 11.925781 C 1.695312 11.011719 1.5 10.039062 1.5 9 C 1.5 7.960938 1.695312 6.988281 2.089844 6.074219 C 2.484375 5.164062 3.019531 4.367188 3.695312 3.695312 C 4.367188 3.019531 5.164062 2.484375 6.074219 2.089844 C 6.988281 1.695312 7.960938 1.5 9 1.5 C 10.039062 1.5 11.011719 1.695312 11.925781 2.089844 C 12.835938 2.484375 13.632812 3.019531 14.304688 3.695312 C 14.980469 4.367188 15.515625 5.164062 15.910156 6.074219 C 16.304688 6.988281 16.5 7.960938 16.5 9 C 16.5 10.039062 16.304688 11.011719 15.910156 11.925781 C 15.515625 12.835938 14.980469 13.632812 14.304688 14.304688 C 13.632812 14.980469 12.835938 15.515625 11.925781 15.910156 C 11.011719 16.304688 10.039062 16.5 9 16.5 Z M 9 9 Z M 9 15 C 10.664062 15 12.078125 14.414062 13.246094 13.246094 C 14.414062 12.078125 15 10.664062 15 9 C 15 7.335938 14.414062 5.921875 13.246094 4.753906 C 12.078125 3.585938 10.664062 3 9 3 C 7.335938 3 5.921875 3.585938 4.753906 4.753906 C 3.585938 5.921875 3 7.335938 3 9 C 3 10.664062 3.585938 12.078125 4.753906 13.246094 C 5.921875 14.414062 7.335938 15 9 15 Z M 9 15 "/>
</g>
</svg>
