<?xml version="1.0" encoding="UTF-8" standalone="no" ?>
<!DOCTYPE svg PUBLIC "-//W3C//DTD SVG 1.1//EN" "http://www.w3.org/Graphics/SVG/1.1/DTD/svg11.dtd">
<svg xmlns="http://www.w3.org/2000/svg" xmlns:xlink="http://www.w3.org/1999/xlink" version="1.1" width="400" height="400" viewBox="0 0 400 400" xml:space="preserve">
<desc>Created with Fabric.js 3.6.2</desc>
<defs>
</defs>
<g transform="matrix(0.39 0 0 0.39 200 200)"  >
<circle style="stroke: none; stroke-width: 1; stroke-dasharray: none; stroke-linecap: butt; stroke-dashoffset: 0; stroke-linejoin: miter; stroke-miterlimit: 4; fill: rgb(255,255,255); fill-rule: nonzero; opacity: 1;"  cx="0" cy="0" r="256" />
</g>
<g transform="matrix(0.39 0 0 0.39 200 200)"  >
<path style="stroke: none; stroke-width: 1; stroke-dasharray: none; stroke-linecap: butt; stroke-dashoffset: 0; stroke-linejoin: miter; stroke-miterlimit: 4; fill: rgb(123,81,155); fill-rule: evenodd; opacity: 1;"  transform=" translate(-256, -256)" d="M 256 512 C 114.615 512 0 397.385 0 256 C 0 114.615 114.615 0 256 0 C 397.385 0 512 114.615 512 256 C 512 397.385 397.385 512 256 512 Z M 217.044 133.011 C 205.742 133.011 206.959 149.189 218.213 149.367 C 255.481 149.958 333.364 182.18 335.138 273.204 C 335.369 285.038 350.339 286.234 350.339 272.036 C 350.339 168.008 259.044 133.011 217.044 133.011 Z M 302.399 261.521 C 302.399 269.796 317.6 269.783 317.6 262.69 C 317.6 195.899 263.638 166.891 228.736 166.891 C 216.314 166.891 222.243 183.247 227.567 183.247 C 287.314 183.247 302.399 246.153 302.399 261.521 Z M 236.921 215.959 C 253.484 215.959 269.66 231.529 269.66 248.67 C 269.66 256.354 283.691 258.705 283.691 249.839 C 283.691 220.285 262.922 200.771 239.26 200.771 C 227.428 200.771 229.231 215.959 236.921 215.959 Z M 345.662 351.478 C 319.604 334.43 288.122 304.054 276.676 305.916 C 263.715 308.023 261.534 333.699 245.106 336.291 C 216.475 340.808 148.362 283.072 153.904 245.165 C 156.405 228.059 188.899 222.959 184.305 210.117 C 179.419 196.46 145.357 153.632 137.535 143.526 C 121.462 122.762 69.396 162.809 73.225 189.089 C 75.903 207.463 109.947 274.644 160.919 325.776 C 211.092 376.107 276.704 408.008 295.384 415.733 C 320.64 426.179 372.06 368.749 345.662 351.478 Z" stroke-linecap="round" />
</g>
<g transform="matrix(0.39 0 0 0.39 214.64 214.64)"  >
<path style="stroke: none; stroke-width: 1; stroke-dasharray: none; stroke-linecap: butt; stroke-dashoffset: 0; stroke-linejoin: miter; stroke-miterlimit: 4; fill: rgb(0,0,0); fill-rule: evenodd; opacity: 0.1;"  transform=" translate(-293.49, -293.49)" d="M 436.999 75.012 C 536.959 174.972 536.959 337.039 436.999 436.999 C 337.039 536.959 174.972 536.959 75.012 436.999" stroke-linecap="round" />
</g>
</svg>